<svg width="1400" height="980" viewBox="0 0 1400 980" fill="none" xmlns="http://www.w3.org/2000/svg">
<g clip-path="url(#clip0_101_2)">
<g filter="url(#filter0_d_101_2)">
<path d="M0.5 1.5H1399.5V980.5H0.5V1.5Z" stroke="black" shape-rendering="crispEdges"/>
</g>
<path fill-rule="evenodd" clip-rule="evenodd" d="M1161 605.7L699.5 872.3L237.9 605.7L699.5 339.2L1161 605.7Z" fill="#F9B955"/>
<path fill-rule="evenodd" clip-rule="evenodd" d="M1161 605.7L1159.2 606.8C1152.6 604 1145 600.5 1136.1 595.9C1131.3 593.4 1124.3 590.6 1116.6 587.6C1111.9 585.7 1107 583.7 1102.1 581.7C1080.8 572.7 1059.2 561.3 1058.5 546.6L1060.5 547.8C1062.3 561 1082.7 571.5 1102.8 580C1107.7 582.1 1112.7 584.1 1117.3 585.9C1125.1 589 1132.1 591.8 1137 594.3C1145.7 598.8 1153.1 602.2 1159.7 605L1161 605.7ZM1141.1 617.3L1139 618.5C1133.4 616.4 1129.5 615 1128.4 614.4C1106.7 602.7 1072.9 588.2 1039.5 573.9C995.4 555 951.9 536.4 937.1 524.5C906 499.5 884 488.4 862.4 477.4C848.8 470.5 835.3 463.7 819.9 453.6L817.4 452C804.9 443.8 785.9 427.5 764.9 409.5C739 387.3 710 362.5 686.4 346.9L688.1 346C711.9 361.7 740.5 386.3 766.2 408.2C787.1 426.2 806.1 442.3 818.5 450.5L821 452.1C836.4 462.2 849.8 469 863.3 475.8C884.9 486.8 907 498 938.3 523.1C952.9 534.8 996.3 553.4 1040.3 572.3C1073.8 586.7 1107.6 601.2 1129.4 612.9C1130.3 613.3 1134.8 614.9 1141.1 617.3ZM1106.5 637.3L1104.6 638.4C1060.1 615.8 1006.6 590.3 956.8 566.6C892.4 535.9 834 508.1 808.7 493C786.3 479.6 767.9 469.6 750.5 460.3C720.4 444 693.2 429.3 653 400.9C651.5 399.8 647.6 397.4 642.5 394.3C637.2 391 630.7 387 624.2 382.8L625.9 381.8C632.1 385.8 638.4 389.6 643.4 392.8C648.6 396 652.5 398.4 654 399.5C694.1 427.8 721.2 442.5 751.3 458.7C768.7 468.1 787.1 478.1 809.6 491.5C834.8 506.6 893.2 534.4 957.6 565C1007.9 588.8 1061.8 614.5 1106.5 637.3ZM1080.5 652.3L1078.6 653.4C1039.1 630.3 976.7 599.3 911.1 566.6C795.7 509.2 670.4 446.9 642.5 414C638.3 409.1 627.2 401.2 615.7 394.2C613.8 393 611.9 391.9 610 390.9L611.9 389.8C613.5 390.7 615.1 391.7 616.7 392.6C628.4 399.6 639.6 407.7 644 412.8C671.7 445.4 796.8 507.6 912.1 564.9C978.1 597.8 1041 629.1 1080.5 652.3ZM1067.6 659.8L1066.2 660.6C1017.1 617 848.4 544 760.8 506.1C742 498 727 491.4 717.6 487.2C706.2 482 660.1 455.5 622.1 432.4C606.4 422.8 592 413.8 582.1 407L583.8 406C593.6 412.6 607.7 421.4 623.1 430.8C661 453.9 707 480.3 718.3 485.5C727.7 489.8 742.7 496.3 761.5 504.4C849.2 542.2 1017.8 615.2 1067.6 659.8ZM1053.1 668.1L1051.2 669.2C1047.1 666.8 1043.1 664.5 1039.3 662.2C963 617.5 938 602.9 844.7 561.4C842.4 560.4 836.7 557.7 828.2 553.8C775.2 529.5 616.3 456.5 541.8 430.2L543.4 429.3C619.5 455.9 776.3 528 828.9 552.1C837.4 556 843.1 558.6 845.4 559.7C938.8 601.3 963.8 615.9 1040.2 660.6C1044.4 663 1048.7 665.5 1053.1 668.1ZM1039.1 676.2L1037.4 677.2C1027.6 668.9 1017.1 661.1 1006 653.9C977.9 635.4 947 620.9 919.3 612.6C915.8 611.5 912.1 609.7 908.2 607.8C899.3 603.5 890 598.9 884.4 604.5C884.2 604.7 884.5 605.3 885.4 606.2C889.8 610.6 904.8 618.5 924.3 628.7C953.1 643.9 991.7 664.2 1021.2 686.4L1019.5 687.4C990.3 665.5 952.1 645.4 923.5 630.3C903.9 619.9 888.8 612 884.2 607.4C882.5 605.6 882 604.2 883.1 603.1C889.6 596.5 899.5 601.3 909 606C912.8 607.9 916.5 609.7 919.8 610.7C947.7 619.1 978.7 633.7 1007 652.2C1018.3 659.7 1029.1 667.7 1039.1 676.2ZM1010.6 692.6L1009.1 693.4C967.6 667.1 896.8 630.9 848.3 606.2C826.1 594.9 808.6 585.9 800.7 581.3C735.4 543.7 674.6 515.2 612.3 486.1C582.3 472 551.9 457.8 520.7 442.4L522.6 441.3C553.6 456.6 583.5 470.6 613.1 484.5C675.4 513.7 736.2 542.2 801.6 579.8C809.4 584.3 826.9 593.2 849.1 604.6C897.9 629.4 969 665.8 1010.6 692.6ZM995.6 701.3L993.7 702.4C963.9 687.8 930.4 670.9 923.7 667.2C881.3 644.1 843.8 625.2 806 607.3C768.2 589.5 730.1 572.7 686.5 554.2L671.1 547.6C649.9 538.5 622.5 521.9 593.6 504.4C562.7 485.6 530.1 465.9 501.7 453.3L503.7 452.2C531.9 464.8 564.1 484.3 594.6 502.8C623.4 520.2 650.7 536.8 671.8 545.8L687.2 552.4C730.9 571 769 587.8 806.8 605.6C844.6 623.4 882.1 642.4 924.6 665.5C931.4 669.3 965.6 686.6 995.6 701.3ZM977.7 711.7L975.8 712.8C934.6 690.2 864 658.9 790.2 626.1C693 582.9 590 537.3 540.9 505.4C538.8 504 531.3 499.8 521.3 494.1C508.5 486.8 491.4 477.1 476.3 468.1L478.1 467C493 475.8 509.6 485.3 522.2 492.5C532.2 498.2 539.7 502.4 541.9 503.9C590.9 535.7 693.8 581.2 791 624.3C865.4 657.3 936.4 688.9 977.7 711.7ZM947.9 728.8L945.8 730C884.5 707.3 805.4 671.8 804.7 671.4C784.3 660.4 751.6 647.9 715.9 634.3C645.3 607.3 563.3 575.9 542.2 543C530.1 524.1 495 492.8 463.8 475.2L465.7 474.1C496.9 492 531.8 523.1 543.9 542C564.6 574.3 646.3 605.6 716.7 632.5C752.4 646.2 785.2 658.7 805.7 669.8C806.4 670.2 886.5 706.2 947.9 728.8ZM927 740.9L925 742.1C870.1 719.3 815.6 695.6 761.6 670.9C704.6 644.8 648.1 617.5 592.3 589L589.3 587.5C526.9 555.5 515.9 550 460 513C456.3 510.6 443.9 502.3 432.4 493.5L434.1 492.5C445.4 501 457.4 509.1 461 511.4C516.9 548.3 527.8 553.9 590.1 585.8L593.1 587.3C648.9 615.9 705.3 643.1 762.4 669.2C816.8 694 871.7 717.9 927 740.9ZM904.6 753.9L902.6 755.1C863.8 739.5 833.8 724.3 804 709.2C782.5 698.3 761.2 687.5 736.9 676.6C701.6 660.9 667.6 643.6 634.1 626.5C594.6 606.3 555.8 586.5 516.5 570.3C504.6 565.4 481.6 551.5 457 536.6C440.4 526.6 423.1 516.1 408 507.6L409.8 506.5C424.7 514.8 441.7 525.1 457.9 534.9C482.5 549.8 505.5 563.7 517.2 568.5C556.6 584.8 595.5 604.6 635 624.8C668.6 641.9 702.6 659.3 737.7 674.9C762.1 685.8 783.4 696.6 804.9 707.5C834.9 722.7 865.3 738.2 904.6 753.9ZM888.7 763L886.8 764.1C787.5 714.8 622.3 641.9 567.6 617.8C562.3 615.5 558 613.6 555 612.2L535.6 603.6C489.9 583.4 465.1 565.9 443.1 550.5C426.4 538.7 411.3 528.2 389.9 518.4C389.8 518.3 389.5 518.3 389.3 518.3L391.4 517.1C412.6 526.8 427.6 537.3 444.2 549C466.1 564.3 490.8 581.7 536.3 601.9L555.8 610.5C558.8 611.9 563.1 613.8 568.4 616.1C623.3 640.3 789.4 713.6 888.7 763ZM865.3 776.6L863.4 777.7C793.6 741.8 722.1 708.4 651.2 675.3C638.1 669.2 625.1 663.1 612 657C595 649 566.1 631.2 533.7 611.3C476.4 576 408 533.8 374.5 526.9L376.7 525.6C411.7 533.9 478.5 575.1 534.7 609.7C567 629.6 595.8 647.4 612.7 655.3C625.7 661.4 638.8 667.5 651.9 673.6C723.2 706.9 795.2 740.5 865.3 776.6ZM847.4 786.9L845.6 788C832.1 779.7 819 772 806.3 766.4C801.6 764.3 795.5 760.6 788.7 756.5C769.7 745.1 745.9 730.6 738.9 742.3C732.6 752.9 751.4 768.4 778.8 784.7C790.2 791.5 803.1 798.4 816.4 805.1L814.5 806.2C801.6 799.6 789 792.9 777.9 786.3C749.6 769.5 730.3 753.3 737.4 741.4C745.2 728.1 770 743.1 789.7 755C796.5 759.1 802.6 762.8 807.2 764.8C820.1 770.4 833.7 778.3 847.4 786.9ZM800.8 813.8L799 814.9C789.4 808.9 779.6 802.9 769.8 796.9C736.6 776.5 704.5 756.8 688 743.4L681.7 738.3C614.4 683.8 576.7 662.5 535.4 639C508.9 624 481 608.2 442.8 582.3C441.7 581.6 437.4 579 431.2 575.3C412.8 564.2 378.2 543.4 364.4 532.8L366 531.9C379.6 542.2 413.9 562.8 432.1 573.8C438.3 577.5 442.6 580.1 443.8 580.9C481.9 606.7 509.9 622.6 536.3 637.5C577.7 661 615.5 682.3 682.9 736.9L689.2 742C705.6 755.3 737.6 775 770.8 795.4C780.8 801.5 791 807.7 800.8 813.8ZM753.3 841.3L751.5 842.3C749.4 840.9 747.2 839.6 745 838.1C732 829.7 717.8 820.6 700 811.2C669.8 795.4 640.7 764.6 611.7 733.9C585.6 706.3 559.6 678.8 533 662.3C518.9 653.6 496.9 637.3 472.6 619.3C429.4 587.3 378.8 549.8 352.5 539.6L354.1 538.6C381.6 549.6 431.2 586.3 473.7 617.8C498 635.8 520 652 534 660.7C560.8 677.3 586.9 705 613.1 732.6C642 763.2 671 793.9 700.9 809.6C718.9 819 733 828.1 746.1 836.5C748.5 838.1 750.9 839.7 753.3 841.3ZM747.2 844.8L745.3 845.9C663.1 803.6 623.2 778.4 553.3 734.4C545.2 729.3 536.7 723.9 527.6 718.3C498.7 700.1 478.5 689.9 461 681C428.1 664.3 404.5 652.4 350.5 601.9C348 599.6 341.9 594.8 334.5 589C325.9 582.3 315.5 574.1 306.2 566.3L307.9 565.3C317 573 327.2 581 335.6 587.5C343.1 593.4 349.2 598.1 351.8 600.6C405.6 650.8 429.1 662.7 461.9 679.3C479.5 688.2 499.7 698.5 528.7 716.7C537.7 722.4 546.2 727.7 554.4 732.8C624.4 777 664.4 802.2 747.2 844.8ZM723.8 858.3L722 859.3C677 833.1 627.3 800.2 583.7 771.4C543 744.4 507.6 721 486.7 710.1L483.1 708.2C463.4 698 382.9 647.8 324.4 611.3C305.8 599.7 289.5 589.5 278.1 582.5L279.9 581.5C291.3 588.6 307.3 598.5 325.4 609.8C383.8 646.2 464.3 696.4 483.9 706.6L487.5 708.5C508.5 719.4 543.8 742.8 584.7 769.9C628.6 798.9 678.7 832.1 723.8 858.3ZM701.5 871.2L699.7 872.3C697.8 871.1 696 870 694.1 868.8C655.2 844.3 614.7 821.5 577.2 801.7C559 792.1 528.8 768.2 496.8 742.8C465.2 717.7 431.7 691.2 406.3 675.7L399.7 671.7C388.6 664.9 378.9 659.2 369.8 653.9C346.2 640.1 326.2 628.3 295.6 606C292.4 603.7 280.7 594.8 271.8 586.4L273.5 585.4C282.3 593.6 293.6 602.2 296.7 604.5C327.3 626.7 347.3 638.5 370.8 652.3C380 657.7 389.7 663.4 400.7 670.1L407.3 674.1C432.8 689.6 466.3 716.2 498 741.3C530 766.6 560.1 790.5 578.1 800C615.7 819.8 656.2 842.6 695.2 867.2C697.2 868.5 699.3 869.8 701.5 871.2ZM330.6 552.2L332.3 551.2C347.5 562.6 364.1 578.9 382 596.3C419.1 632.5 461.4 673.9 506.3 686.8C521.7 691.3 528.2 691.4 528.9 688.8C531 681.4 495.2 654.6 474.8 639.3C470.2 635.9 466.4 633 464 631.1C459.6 627.6 446.3 619.7 429.9 609.8C399.3 591.5 357.9 566.5 341.3 551.1C340.1 550 339.1 548.9 338.2 547.9L339.8 547C340.6 547.9 341.5 548.8 342.6 549.8C359.1 565.1 400.5 590 430.9 608.3C447.4 618.2 460.7 626.2 465.2 629.8C467.7 631.8 471.4 634.6 476 638C496.8 653.6 533.3 681 530.8 689.5C529.8 693.2 522.5 693.6 505.9 688.8C460.6 675.7 418.1 634.2 380.8 597.8C362.7 580 345.8 563.6 330.6 552.2ZM638.1 374.6L639.9 373.5C667.1 388.4 702.1 411.7 732.3 431.8C755.4 447.2 775.7 460.6 787.5 467.1C789.1 468 791.5 469.4 794.4 471.1C810.8 480.7 844.4 500.4 851.7 493.4C852.5 492.6 850.7 490 846.9 486C830.6 468.9 778.6 431.7 743.5 406.6C730.2 397.1 719.3 389.3 713.7 385L709.6 381.9C707.9 380.6 702.3 377.2 695 372.9C687.2 368.3 677.6 362.6 668.6 356.9L670.4 355.8C679.1 361.3 688.4 366.8 695.9 371.2C703.3 375.6 709 378.9 710.7 380.3L714.8 383.4C720.4 387.7 731.3 395.5 744.5 405C779.7 430.2 831.7 467.4 848.2 484.6C852.7 489.4 854.7 492.9 852.9 494.6C844.6 502.5 810.2 482.3 793.4 472.5C790.5 470.8 788.2 469.5 786.6 468.6C774.7 462.1 754.4 448.6 731.3 433.2C700.7 413.1 665.1 389.4 638.1 374.6Z" fill="#EBAB44"/>
<path fill-rule="evenodd" clip-rule="evenodd" d="M1161 631.1L700 897.7V872.3L1161 605.7V631.1Z" fill="#FFD187"/>
<path fill-rule="evenodd" clip-rule="evenodd" d="M238 631.1L700 897.7V872.3L238 605.7V631.1Z" fill="#D49633"/>
<path fill-rule="evenodd" clip-rule="evenodd" d="M1136.2 620.1L1133.8 621.5L672.2 354.9L674.7 353.5L1136.2 620.1Z" fill="#D49633"/>
<path fill-rule="evenodd" clip-rule="evenodd" d="M1138.7 618.6L1136.2 620.1L674.7 353.5L677.1 352L1138.7 618.6Z" fill="#FFD187"/>
<path fill-rule="evenodd" clip-rule="evenodd" d="M1101.9 639.9L1099.4 641.3L637.8 374.7L640.3 373.3L1101.9 639.9Z" fill="#D49633"/>
<path fill-rule="evenodd" clip-rule="evenodd" d="M1104.4 638.5L1101.9 639.9L640.3 373.3L642.8 371.9L1104.4 638.5Z" fill="#FFD187"/>
<path fill-rule="evenodd" clip-rule="evenodd" d="M1067.6 659.7L1065.1 661.2L603.5 394.6L606 393.2L1067.6 659.7Z" fill="#D49633"/>
<path fill-rule="evenodd" clip-rule="evenodd" d="M1070.1 658.3L1067.6 659.7L606 393.2L608.5 391.7L1070.1 658.3Z" fill="#FFD187"/>
<path fill-rule="evenodd" clip-rule="evenodd" d="M1033.3 679.5L1030.8 681L569.2 414.4L571.7 413L1033.3 679.5Z" fill="#D49633"/>
<path fill-rule="evenodd" clip-rule="evenodd" d="M1035.7 678.1L1033.3 679.5L571.7 413L574.2 411.5L1035.7 678.1Z" fill="#FFD187"/>
<path fill-rule="evenodd" clip-rule="evenodd" d="M998.9 699.4L996.4 700.8L534.9 434.2L537.4 432.8L998.9 699.4Z" fill="#D49633"/>
<path fill-rule="evenodd" clip-rule="evenodd" d="M1001.4 698L998.9 699.4L537.4 432.8L539.8 431.3L1001.4 698Z" fill="#FFD187"/>
<path fill-rule="evenodd" clip-rule="evenodd" d="M964.6 719.2L962.1 720.6L500.5 454.1L503 452.6L964.6 719.2Z" fill="#D49633"/>
<path fill-rule="evenodd" clip-rule="evenodd" d="M967.1 717.8L964.6 719.2L503 452.6L505.5 451.2L967.1 717.8Z" fill="#FFD187"/>
<path fill-rule="evenodd" clip-rule="evenodd" d="M930.3 739L927.8 740.5L466.2 473.9L468.7 472.5L930.3 739Z" fill="#D49633"/>
<path fill-rule="evenodd" clip-rule="evenodd" d="M932.7 737.6L930.3 739L468.7 472.5L471.2 471L932.7 737.6Z" fill="#FFD187"/>
<path fill-rule="evenodd" clip-rule="evenodd" d="M895.9 758.9L893.4 760.3L431.9 493.7L434.4 492.3L895.9 758.9Z" fill="#D49633"/>
<path fill-rule="evenodd" clip-rule="evenodd" d="M898.4 757.4L895.9 758.9L434.4 492.3L436.8 490.8L898.4 757.4Z" fill="#FFD187"/>
<path fill-rule="evenodd" clip-rule="evenodd" d="M861.6 778.7L859.1 780.1L397.5 513.6L400 512.1L861.6 778.7Z" fill="#D49633"/>
<path fill-rule="evenodd" clip-rule="evenodd" d="M864.1 777.3L861.6 778.7L400 512.1L402.5 510.7L864.1 777.3Z" fill="#FFD187"/>
<path fill-rule="evenodd" clip-rule="evenodd" d="M827.3 798.5L824.8 799.9L363.2 533.4L365.7 531.9L827.3 798.5Z" fill="#D49633"/>
<path fill-rule="evenodd" clip-rule="evenodd" d="M829.8 797.1L827.3 798.5L365.7 531.9L368.2 530.5L829.8 797.1Z" fill="#FFD187"/>
<path fill-rule="evenodd" clip-rule="evenodd" d="M793 818.4L790.5 819.8L328.9 553.2L331.4 551.8L793 818.4Z" fill="#D49633"/>
<path fill-rule="evenodd" clip-rule="evenodd" d="M795.4 816.9L793 818.4L331.4 551.8L333.8 550.3L795.4 816.9Z" fill="#FFD187"/>
<path fill-rule="evenodd" clip-rule="evenodd" d="M761.1 836.7L758.6 838.2L297.1 571.6L299.5 570.2L761.1 836.7Z" fill="#FFD187"/>
<path fill-rule="evenodd" clip-rule="evenodd" d="M758.6 838.2L756.1 839.6L294.6 573L297.1 571.6L758.6 838.2Z" fill="#D49633"/>
<path fill-rule="evenodd" clip-rule="evenodd" d="M726.8 856.6L724.3 858L262.7 591.4L265.2 590L726.8 856.6Z" fill="#FFD187"/>
<path fill-rule="evenodd" clip-rule="evenodd" d="M724.3 858L721.8 859.4L260.2 592.9L262.7 591.4L724.3 858Z" fill="#D49633"/>
<path fill-rule="evenodd" clip-rule="evenodd" d="M733.5 358.8L271.9 625.4L237.9 605.7L699.5 339.2L733.5 358.8Z" fill="#D49D44"/>
<path fill-rule="evenodd" clip-rule="evenodd" d="M706.2 374.6L672.2 354.9L674.7 353.5L708.7 373.1L706.2 374.6Z" fill="#B47D26"/>
<path fill-rule="evenodd" clip-rule="evenodd" d="M708.7 373.1L674.7 353.5L677.1 352L711.2 371.7L708.7 373.1Z" fill="#F9B955"/>
<path fill-rule="evenodd" clip-rule="evenodd" d="M671.9 394.4L637.8 374.7L640.3 373.3L674.3 392.9L671.9 394.4Z" fill="#B47D26"/>
<path fill-rule="evenodd" clip-rule="evenodd" d="M674.3 392.9L640.3 373.3L642.8 371.9L676.8 391.5L674.3 392.9Z" fill="#F9B955"/>
<path fill-rule="evenodd" clip-rule="evenodd" d="M637.5 414.2L603.5 394.6L606 393.2L640 412.8L637.5 414.2Z" fill="#B47D26"/>
<path fill-rule="evenodd" clip-rule="evenodd" d="M640 412.8L606 393.2L608.5 391.7L642.5 411.4L640 412.8Z" fill="#F9B955"/>
<path fill-rule="evenodd" clip-rule="evenodd" d="M603.2 434L569.2 414.4L571.7 413L605.7 432.6L603.2 434Z" fill="#B47D26"/>
<path fill-rule="evenodd" clip-rule="evenodd" d="M605.7 432.6L571.7 413L574.2 411.5L608.2 431.2L605.7 432.6Z" fill="#F9B955"/>
<path fill-rule="evenodd" clip-rule="evenodd" d="M568.9 453.9L534.9 434.2L537.4 432.8L571.3 452.4L568.9 453.9Z" fill="#B47D26"/>
<path fill-rule="evenodd" clip-rule="evenodd" d="M571.3 452.4L537.4 432.8L539.8 431.3L573.8 451L571.3 452.4Z" fill="#F9B955"/>
<path fill-rule="evenodd" clip-rule="evenodd" d="M534.5 473.7L500.5 454.1L503 452.6L537 472.2L534.5 473.7Z" fill="#B47D26"/>
<path fill-rule="evenodd" clip-rule="evenodd" d="M537 472.2L503 452.6L505.5 451.2L539.5 470.8L537 472.2Z" fill="#F9B955"/>
<path fill-rule="evenodd" clip-rule="evenodd" d="M500.2 493.5L466.2 473.9L468.7 472.5L502.7 492.1L500.2 493.5Z" fill="#B47D26"/>
<path fill-rule="evenodd" clip-rule="evenodd" d="M502.7 492.1L468.7 472.5L471.2 471L505.2 490.7L502.7 492.1Z" fill="#F9B955"/>
<path fill-rule="evenodd" clip-rule="evenodd" d="M465.9 513.3L431.9 493.7L434.4 492.3L468.3 511.9L465.9 513.3Z" fill="#B47D26"/>
<path fill-rule="evenodd" clip-rule="evenodd" d="M468.3 511.9L434.4 492.3L436.8 490.8L470.8 510.5L468.3 511.9Z" fill="#F9B955"/>
<path fill-rule="evenodd" clip-rule="evenodd" d="M431.5 533.2L397.5 513.6L400 512.1L434 531.7L431.5 533.2Z" fill="#B47D26"/>
<path fill-rule="evenodd" clip-rule="evenodd" d="M434 531.7L400 512.1L402.5 510.7L436.5 530.3L434 531.7Z" fill="#F9B955"/>
<path fill-rule="evenodd" clip-rule="evenodd" d="M397.2 553L363.2 533.4L365.7 531.9L399.7 551.6L397.2 553Z" fill="#B47D26"/>
<path fill-rule="evenodd" clip-rule="evenodd" d="M399.7 551.6L365.7 531.9L368.2 530.5L402.2 550.1L399.7 551.6Z" fill="#F9B955"/>
<path fill-rule="evenodd" clip-rule="evenodd" d="M362.9 572.8L328.9 553.2L331.4 551.8L365.4 571.4L362.9 572.8Z" fill="#B47D26"/>
<path fill-rule="evenodd" clip-rule="evenodd" d="M365.4 571.4L331.4 551.8L333.8 550.3L367.9 570L365.4 571.4Z" fill="#F9B955"/>
<path fill-rule="evenodd" clip-rule="evenodd" d="M331 591.2L297.1 571.6L299.5 570.2L333.5 589.8L331 591.2Z" fill="#F9B955"/>
<path fill-rule="evenodd" clip-rule="evenodd" d="M328.6 592.6L294.6 573L297.1 571.6L331 591.2L328.6 592.6Z" fill="#B47D26"/>
<path fill-rule="evenodd" clip-rule="evenodd" d="M296.7 611.1L262.7 591.4L265.2 590L299.2 609.6L296.7 611.1Z" fill="#F9B955"/>
<path fill-rule="evenodd" clip-rule="evenodd" d="M294.2 612.5L260.2 592.9L262.7 591.4L296.7 611.1L294.2 612.5Z" fill="#B47D26"/>
<path fill-rule="evenodd" clip-rule="evenodd" d="M1013.2 602.4L1161 605.7L1066.2 550.9L933.8 555.6L1013.2 602.4Z" fill="#A1752F"/>
<path fill-rule="evenodd" clip-rule="evenodd" d="M711.7 751.6L666.8 777.4L674.6 793.5L664.8 799.2L526.4 719.2L481.6 654.8L692.8 700.8L711.7 751.6Z" fill="#D49D44"/>
<path fill-rule="evenodd" clip-rule="evenodd" d="M703.7 730L629.2 687L637.2 688.7L702.3 726.3L703.7 730Z" fill="#B47D26"/>
<path fill-rule="evenodd" clip-rule="evenodd" d="M702.3 726.3L637.2 688.7L645.2 690.5L700.9 722.7L702.3 726.3Z" fill="#F9B955"/>
<path fill-rule="evenodd" clip-rule="evenodd" d="M692 762.9L518.8 662.9L526.8 664.7L694.5 761.5L692 762.9Z" fill="#B47D26"/>
<path fill-rule="evenodd" clip-rule="evenodd" d="M694.5 761.5L526.8 664.7L534.8 666.4L697 760.1L694.5 761.5Z" fill="#F9B955"/>
<path fill-rule="evenodd" clip-rule="evenodd" d="M672 788.2L508.8 693.9L505.4 689.1L670.1 784.2L672 788.2Z" fill="#F9B955"/>
<path fill-rule="evenodd" clip-rule="evenodd" d="M673.9 792.1L512.1 698.7L508.8 693.9L672 788.2L673.9 792.1Z" fill="#B47D26"/>
<path fill-rule="evenodd" clip-rule="evenodd" d="M1100.2 623.2L1136.2 620.1L1161 605.7L1141.6 594.5L1076.3 609.4L1100.2 623.2Z" fill="#A1752F"/>
<path fill-rule="evenodd" clip-rule="evenodd" d="M238 374.9L216 362V618.3L238 631.1V374.9Z" fill="#BDA58B"/>
<path fill-rule="evenodd" clip-rule="evenodd" d="M700 108.3L238 374.9V605.7L700 339.2V108.3Z" fill="#E4C9AC"/>
<path fill-rule="evenodd" clip-rule="evenodd" d="M238.2 374.9L216 362L700 82.6001V108.3L238.2 374.9Z" fill="#FAE4CD"/>
<path fill-rule="evenodd" clip-rule="evenodd" d="M698 111.7L1159 378.3V609.1L698 342.6V111.7Z" fill="#BDA58B"/>
<path fill-rule="evenodd" clip-rule="evenodd" d="M1159.3 378.3L1181.7 365.4L698 86V111.7L1159.3 378.3Z" fill="#E4C9AC"/>
<path fill-rule="evenodd" clip-rule="evenodd" d="M1159 378.3L1181 365.4V621.7L1159 634.5V378.3Z" fill="#E4C9AC"/>
<path fill-rule="evenodd" clip-rule="evenodd" d="M696 374.2L672 360.4V387.2L696 401V374.2Z" fill="#1A1A1A"/>
<path fill-rule="evenodd" clip-rule="evenodd" d="M696 374.2L720 360.4V387.2L696 401V374.2Z" fill="#4D4D4D"/>
<path fill-rule="evenodd" clip-rule="evenodd" d="M695.8 374.2L719.7 360.4L695.8 346.6L671.9 360.4L695.8 374.2Z" fill="#333333"/>
<path fill-rule="evenodd" clip-rule="evenodd" d="M696 186.8L689 182.5V360.9L696 365.1V186.8Z" fill="#D49633"/>
<path fill-rule="evenodd" clip-rule="evenodd" d="M696 186.8L704 182.5V360.9L696 365.1V186.8Z" fill="#FFD187"/>
<path fill-rule="evenodd" clip-rule="evenodd" d="M696 183.3L672 169.5V292.4L696 306.2V183.3Z" fill="#D6D689"/>
<path fill-rule="evenodd" clip-rule="evenodd" d="M696 183.3L720 169.5V292.4L696 306.2V183.3Z" fill="#FFFFCC"/>
<path fill-rule="evenodd" clip-rule="evenodd" d="M695.8 183.3L719.7 169.5L695.8 155.7L671.9 169.5L695.8 183.3Z" fill="#EBEBA4"/>
<path fill-rule="evenodd" clip-rule="evenodd" d="M696 183.3L672 169.5V177.5L696 191.3V183.3Z" fill="#1A1A1A"/>
<path fill-rule="evenodd" clip-rule="evenodd" d="M696 183.3L720 169.5V177.5L696 191.3V183.3Z" fill="#4D4D4D"/>
<path fill-rule="evenodd" clip-rule="evenodd" d="M696 298.1L672 284.3V292.4L696 306.2V298.1Z" fill="#1A1A1A"/>
<path fill-rule="evenodd" clip-rule="evenodd" d="M696 298.1L720 284.3V292.4L696 306.2V298.1Z" fill="#4D4D4D"/>
<path fill-rule="evenodd" clip-rule="evenodd" d="M363 552.1L359 550V582.8L363 584.9V552.1Z" fill="#1A1A1A"/>
<path fill-rule="evenodd" clip-rule="evenodd" d="M363 552.1L367 550V582.8L363 584.9V552.1Z" fill="#4D4D4D"/>
<path fill-rule="evenodd" clip-rule="evenodd" d="M381 541.5L378 539.3V572.1L381 574.2V541.5Z" fill="#1A1A1A"/>
<path fill-rule="evenodd" clip-rule="evenodd" d="M381 541.5L385 539.3V572.1L381 574.2V541.5Z" fill="#4D4D4D"/>
<path fill-rule="evenodd" clip-rule="evenodd" d="M344 541.5L341 539.3V572.1L344 574.2V541.5Z" fill="#1A1A1A"/>
<path fill-rule="evenodd" clip-rule="evenodd" d="M344 541.5L348 539.3V572.1L344 574.2V541.5Z" fill="#4D4D4D"/>
<path fill-rule="evenodd" clip-rule="evenodd" d="M336 415.9L360 437.3V446.6L336 418.5V415.9Z" fill="#D49633"/>
<path fill-rule="evenodd" clip-rule="evenodd" d="M338 415L361.9 436.3L360 437.3L336.1 415.9L338 415Z" fill="#FFD187"/>
<path fill-rule="evenodd" clip-rule="evenodd" d="M336 367.7L360 389.1V398.4L336 370.3V367.7Z" fill="#D49633"/>
<path fill-rule="evenodd" clip-rule="evenodd" d="M338 366.8L361.9 388.1L360 389.1L336.1 367.7L338 366.8Z" fill="#FFD187"/>
<path fill-rule="evenodd" clip-rule="evenodd" d="M387 393.9L364 415.2V424.5L387 396.4V393.9Z" fill="#D49633"/>
<path fill-rule="evenodd" clip-rule="evenodd" d="M385.7 392.9L361.9 414.2L363.7 415.2L387.6 393.9L385.7 392.9Z" fill="#FFD187"/>
<path fill-rule="evenodd" clip-rule="evenodd" d="M387 437.7L364 459V468.3L387 440.2V437.7Z" fill="#D49633"/>
<path fill-rule="evenodd" clip-rule="evenodd" d="M385.7 436.7L361.9 458.1L363.7 459L387.6 437.7L385.7 436.7Z" fill="#FFD187"/>
<path fill-rule="evenodd" clip-rule="evenodd" d="M363 542.8L338 529V538.3L363 552.1V542.8Z" fill="#D49633"/>
<path fill-rule="evenodd" clip-rule="evenodd" d="M363 542.8L386 529V538.3L363 552.1V542.8Z" fill="#FFD187"/>
<path fill-rule="evenodd" clip-rule="evenodd" d="M362.3 542.8L386.2 529L362.3 515.2L338.5 529L362.3 542.8Z" fill="#F9B955"/>
<path fill-rule="evenodd" clip-rule="evenodd" d="M363 355.5L356 351.2V529.6L363 533.9V355.5Z" fill="#1A1A1A"/>
<path fill-rule="evenodd" clip-rule="evenodd" d="M363 355.5L370 351.2V529.6L363 533.9V355.5Z" fill="#4D4D4D"/>
<path fill-rule="evenodd" clip-rule="evenodd" d="M389 424L392 422V426L389 427.8V424Z" fill="#FFD187"/>
<path fill-rule="evenodd" clip-rule="evenodd" d="M389 424L364 439.1V448.4L389 427.8V424Z" fill="#D49633"/>
<path fill-rule="evenodd" clip-rule="evenodd" d="M364.6 448.4L367.9 446.5L391.8 426L388.5 427.8L364.6 448.4Z" fill="#B37627"/>
<path fill-rule="evenodd" clip-rule="evenodd" d="M389 378.3L392 376.3V380.3L389 382.2V378.3Z" fill="#FFD187"/>
<path fill-rule="evenodd" clip-rule="evenodd" d="M389 378.3L364 393.4V402.7L389 382.2V378.3Z" fill="#D49633"/>
<path fill-rule="evenodd" clip-rule="evenodd" d="M364.6 402.7L367.9 400.8L391.8 380.3L388.5 382.2L364.6 402.7Z" fill="#B37627"/>
<path fill-rule="evenodd" clip-rule="evenodd" d="M362.3 355.5L354.9 351.2L362.3 347L369.7 351.2L362.3 355.5Z" fill="#333333"/>
<path fill-rule="evenodd" clip-rule="evenodd" d="M336 401.2L332 399.3V403.3L336 405.2V401.2Z" fill="#FFD187"/>
<path fill-rule="evenodd" clip-rule="evenodd" d="M336 401.2L360 416.4V425.7L336 405.2V401.2Z" fill="#D49633"/>
<path fill-rule="evenodd" clip-rule="evenodd" d="M360 425.7L356.7 423.8L332.8 403.3L336.1 405.2L360 425.7Z" fill="#B37627"/>
<path fill-rule="evenodd" clip-rule="evenodd" d="M336 445.2L332 443.4V447.3L336 449.2V445.2Z" fill="#FFD187"/>
<path fill-rule="evenodd" clip-rule="evenodd" d="M336 445.2L360 460.4V469.7L336 449.2V445.2Z" fill="#D49633"/>
<path fill-rule="evenodd" clip-rule="evenodd" d="M360 469.7L356.7 467.8L332.8 447.3L336.1 449.2L360 469.7Z" fill="#B37627"/>
<path fill-rule="evenodd" clip-rule="evenodd" d="M898.7 593.3L711.2 701.6L523.7 593.3L711.2 485L898.7 593.3Z" fill="#FFE47A"/>
<path fill-rule="evenodd" clip-rule="evenodd" d="M899 595.3L711 703.5V701.6L899 593.3V595.3Z" fill="#E0C24C"/>
<path fill-rule="evenodd" clip-rule="evenodd" d="M523 595.3L711 703.5V701.6L523 593.3V595.3Z" fill="#C2A42E"/>
<path fill-rule="evenodd" clip-rule="evenodd" d="M879.6 593.3L711.2 690.6L542.8 593.3L711.2 496L879.6 593.3ZM875.7 593.3L711.2 688.3L546.7 593.3L711.2 498.2L875.7 593.3Z" fill="white"/>
<path fill-rule="evenodd" clip-rule="evenodd" d="M759.9 593.3L711.2 621.4L662.5 593.3L711.2 565.2L759.9 593.3Z" fill="white"/>
<path fill-rule="evenodd" clip-rule="evenodd" d="M692.8 661.8L639 692.9L623.2 683.8L677 652.7L692.8 661.8Z" fill="#F04B49"/>
<path fill-rule="evenodd" clip-rule="evenodd" d="M693 700.8L639 731.9V692.9L693 661.9V700.8Z" fill="#F87876"/>
<path fill-rule="evenodd" clip-rule="evenodd" d="M623 722.8L639 731.9V692.9L623 683.8V722.8Z" fill="#C53432"/>
<path fill-rule="evenodd" clip-rule="evenodd" d="M565.3 588.2L511.5 619.3L495.7 610.2L549.5 579.1L565.3 588.2Z" fill="#F04B49"/>
<path fill-rule="evenodd" clip-rule="evenodd" d="M565 627.2L511 658.3V619.3L565 588.2V627.2Z" fill="#F87876"/>
<path fill-rule="evenodd" clip-rule="evenodd" d="M665 659.6L627.1 681.6L522.9 621.4L560.9 599.5L665 659.6Z" fill="#C53432"/>
<path fill-rule="evenodd" clip-rule="evenodd" d="M637.9 654.2L627.1 660.5L481.6 576.4L492.4 570.2L637.9 654.2Z" fill="#F04B49"/>
<path fill-rule="evenodd" clip-rule="evenodd" d="M637 732.6L628 738.8V660.5L637 654.2V732.6Z" fill="#F87876"/>
<path fill-rule="evenodd" clip-rule="evenodd" d="M482 654.8L628 738.8V660.5L482 576.4V654.8Z" fill="#C53432"/>
<path fill-rule="evenodd" clip-rule="evenodd" d="M697.7 338.9L783.4 388.4L854.8 347.1L769.1 297.6L697.7 338.9Z" fill="#83410F"/>
<path fill-rule="evenodd" clip-rule="evenodd" d="M698 347.3L783 396.8V388.4L698 338.9V347.3Z" fill="#A3571D"/>
<path fill-rule="evenodd" clip-rule="evenodd" d="M854 355.5L783 396.8V388.4L854 347.1V355.5Z" fill="#5A3519"/>
<path fill-rule="evenodd" clip-rule="evenodd" d="M704 417.4L783 463.3V396.8L704 350.9V417.4Z" fill="#83410F"/>
<path fill-rule="evenodd" clip-rule="evenodd" d="M851 424.7L783 463.3V396.8L851 358.2V424.7Z" fill="#4C2D15"/>
<path d="M777 454.5V398.2L748 381.3V437.6L777 454.5ZM776 453.1L748 437V382.5L776 398.6V453.1Z" fill="#9E4C0C"/>
<path d="M777 454V397.7L748 380.7V437L777 454ZM777 452.7L749 436.6V382.1L777 398.2V452.7Z" fill="#4C2D15"/>
<path d="M740 433.4V377.1L711 360.1V416.4L740 433.4ZM739 432.1L712 416V361.5L739 377.6V432.1Z" fill="#9E4C0C"/>
<path d="M740 433V376.7L712 359.7V416L740 433ZM740 431.6L712 415.5V361L740 377.1V431.6Z" fill="#4C2D15"/>
<path fill-rule="evenodd" clip-rule="evenodd" d="M751.4 413.4C752.1 413.4 752.7 412.8 752.7 412.1C752.7 411.4 752.1 410.8 751.4 410.8C750.7 410.8 750.1 411.4 750.1 412.1C750.1 412.8 750.7 413.4 751.4 413.4Z" fill="#0B0B0B"/>
<path fill-rule="evenodd" clip-rule="evenodd" d="M750 414.6C751 414.6 752 413.7 752 412.6C752 411.5 751.1 410.6 750 410.6C748.9 410.6 748 411.5 748 412.6C748 413.7 748.9 414.6 750 414.6Z" fill="#222222"/>
<path fill-rule="evenodd" clip-rule="evenodd" d="M737.4 405.8C738.1 405.8 738.7 405.2 738.7 404.5C738.7 403.8 738.1 403.2 737.4 403.2C736.7 403.2 736.1 403.8 736.1 404.5C736.1 405.2 736.7 405.8 737.4 405.8Z" fill="#0B0B0B"/>
<path fill-rule="evenodd" clip-rule="evenodd" d="M736 407C737.1 407 738 406.1 738 405C738 403.9 737.1 403 736 403C734.9 403 734 403.9 734 405C734.1 406.1 735 407 736 407Z" fill="#222222"/>
<path fill-rule="evenodd" clip-rule="evenodd" d="M790.9 201.6L825.6 221.7L829 219.7L794.2 199.6L790.9 201.6Z" fill="#333333"/>
<path fill-rule="evenodd" clip-rule="evenodd" d="M791 240.6L825 260.7V221.7L791 201.6V240.6Z" fill="#1A1A1A"/>
<path fill-rule="evenodd" clip-rule="evenodd" d="M825 260.7V221.7L829 219.7V258.7L825 260.7Z" fill="#4D4D4D"/>
<path fill-rule="evenodd" clip-rule="evenodd" d="M796 239.9L821 254.5V222.4L796 207.8V239.9Z" fill="#CC99FF"/>
<path fill-rule="evenodd" clip-rule="evenodd" d="M1004.6 328.5L1039.3 348.5L1042.7 346.6L1008 326.5L1004.6 328.5Z" fill="#333333"/>
<path fill-rule="evenodd" clip-rule="evenodd" d="M1004 367.5L1040 387.6V348.5L1004 328.5V367.5Z" fill="#1A1A1A"/>
<path fill-rule="evenodd" clip-rule="evenodd" d="M1040 387.6V348.5L1043 346.6V385.6L1040 387.6Z" fill="#4D4D4D"/>
<path fill-rule="evenodd" clip-rule="evenodd" d="M1009 366.8L1035 381.3V349.2L1009 334.7V366.8Z" fill="#CC99FF"/>
<path fill-rule="evenodd" clip-rule="evenodd" d="M978.8 516.1L925.2 547L789.9 468.9L843.5 438L978.8 516.1Z" fill="#A1752F"/>
<path fill-rule="evenodd" clip-rule="evenodd" d="M929 543.4L926 546V501L929 498.3V543.4Z" fill="#4D4D4D"/>
<path fill-rule="evenodd" clip-rule="evenodd" d="M921 543.4L926 546V501L921 498.3V543.4Z" fill="#1A1A1A"/>
<path fill-rule="evenodd" clip-rule="evenodd" d="M976 516.5L972 519.1V474L976 471.4V516.5Z" fill="#4D4D4D"/>
<path fill-rule="evenodd" clip-rule="evenodd" d="M967 516.5L972 519.1V474L967 471.4V516.5Z" fill="#1A1A1A"/>
<path fill-rule="evenodd" clip-rule="evenodd" d="M803 470L798 472.7V427.6L803 424.9V470Z" fill="#4D4D4D"/>
<path fill-rule="evenodd" clip-rule="evenodd" d="M793 470L798 472.7V427.6L793 424.9V470Z" fill="#1A1A1A"/>
<path fill-rule="evenodd" clip-rule="evenodd" d="M978.8 459L925.2 489.9L789.9 411.8L843.5 380.9L978.8 459Z" fill="#333333"/>
<path fill-rule="evenodd" clip-rule="evenodd" d="M978 470L926 501V489.9L978 459V470Z" fill="#4D4D4D"/>
<path fill-rule="evenodd" clip-rule="evenodd" d="M789 422.8L926 501V489.9L789 411.8V422.8Z" fill="#1A1A1A"/>
<path fill-rule="evenodd" clip-rule="evenodd" d="M896 443.1L859 422.2V428.8L896 449.7V443.1Z" fill="#1A1A1A"/>
<path fill-rule="evenodd" clip-rule="evenodd" d="M896 443.1L921 429.1V435.7L896 449.7V443.1Z" fill="#4D4D4D"/>
<path fill-rule="evenodd" clip-rule="evenodd" d="M896 443.1L920.2 429.1L884 408.2L859.7 422.2L896 443.1Z" fill="#333333"/>
<path fill-rule="evenodd" clip-rule="evenodd" d="M900 422.5L875 408.3V420.3L900 434.5V422.5Z" fill="#1A1A1A"/>
<path fill-rule="evenodd" clip-rule="evenodd" d="M900 422.5L905 419.5V431.5L900 434.5V422.5Z" fill="#4D4D4D"/>
<path fill-rule="evenodd" clip-rule="evenodd" d="M934 371L829 309.9V381.4L934 442.4V371Z" fill="#1A1A1A"/>
<path fill-rule="evenodd" clip-rule="evenodd" d="M934 371L939 367.9V439.4L934 442.4V371Z" fill="#4D4D4D"/>
<path fill-rule="evenodd" clip-rule="evenodd" d="M934 371L939.2 367.9L833.6 306.9L828.4 309.9L934 371Z" fill="#333333"/>
<path fill-rule="evenodd" clip-rule="evenodd" d="M929 370.4L834 315.2V379.9L929 435.1V370.4Z" fill="#72DAD3"/>
<path d="M838.057 369.473H839.318L842.284 376.717H842.386L845.352 369.473H846.614V378.2H845.625V371.569H845.54L842.812 378.2H841.858L839.131 371.569H839.045V378.2H838.057V369.473ZM848.733 378.2V369.473H854V370.41H849.789V373.359H853.727V374.297H849.789V377.262H854.068V378.2H848.733ZM855.427 370.41V369.473H861.973V370.41H859.228V378.2H858.172V370.41H855.427ZM862.942 378.2H861.834L865.039 369.473H866.13L869.334 378.2H868.226L865.618 370.853H865.55L862.942 378.2ZM863.351 374.791H867.817V375.728H863.351V374.791ZM870.694 378.2V369.473H873.642C874.324 369.473 874.884 369.589 875.321 369.822C875.759 370.052 876.083 370.369 876.293 370.772C876.503 371.176 876.608 371.635 876.608 372.149C876.608 372.663 876.503 373.119 876.293 373.517C876.083 373.914 875.76 374.227 875.326 374.454C874.891 374.679 874.336 374.791 873.659 374.791H871.273V373.836H873.625C874.091 373.836 874.466 373.768 874.75 373.632C875.037 373.495 875.245 373.302 875.373 373.052C875.503 372.799 875.569 372.498 875.569 372.149C875.569 371.799 875.503 371.494 875.373 371.233C875.242 370.971 875.033 370.77 874.746 370.628C874.459 370.483 874.08 370.41 873.608 370.41H871.75V378.2H870.694ZM874.801 374.279L876.949 378.2H875.722L873.608 374.279H874.801ZM878.369 378.2V369.473H883.636V370.41H879.426V373.359H883.364V374.297H879.426V377.262H883.705V378.2H878.369ZM892.462 369.473V378.2H891.439L886.683 371.348H886.598V378.2H885.541V369.473H886.564L891.337 376.342H891.422V369.473H892.462ZM894.099 370.41V369.473H900.645V370.41H897.9V378.2H896.843V370.41H894.099ZM901.614 378.2H900.506L903.711 369.473H904.801L908.006 378.2H906.898L904.29 370.853H904.222L901.614 378.2ZM902.023 374.791H906.489V375.728H902.023V374.791ZM909.365 378.2V369.473H910.422V377.262H914.479V378.2H909.365ZM920.888 371.654C920.837 371.223 920.63 370.887 920.266 370.649C919.902 370.41 919.456 370.291 918.928 370.291C918.542 370.291 918.203 370.353 917.914 370.478C917.627 370.603 917.402 370.775 917.24 370.994C917.081 371.213 917.002 371.461 917.002 371.74C917.002 371.973 917.057 372.173 917.168 372.341C917.282 372.505 917.426 372.643 917.603 372.754C917.779 372.862 917.963 372.951 918.157 373.022C918.35 373.091 918.527 373.146 918.689 373.189L919.576 373.427C919.803 373.487 920.056 373.569 920.334 373.674C920.615 373.779 920.884 373.923 921.14 374.105C921.398 374.284 921.611 374.514 921.779 374.795C921.946 375.076 922.03 375.422 922.03 375.831C922.03 376.302 921.907 376.728 921.659 377.109C921.415 377.49 921.057 377.792 920.586 378.017C920.117 378.241 919.547 378.353 918.877 378.353C918.252 378.353 917.711 378.253 917.253 378.051C916.799 377.849 916.441 377.568 916.179 377.207C915.921 376.846 915.775 376.427 915.74 375.95H916.831C916.86 376.279 916.971 376.552 917.164 376.768C917.36 376.981 917.607 377.14 917.905 377.245C918.206 377.348 918.53 377.399 918.877 377.399C919.28 377.399 919.642 377.333 919.963 377.203C920.284 377.069 920.539 376.885 920.726 376.649C920.914 376.41 921.007 376.132 921.007 375.814C921.007 375.524 920.926 375.288 920.765 375.106C920.603 374.924 920.39 374.777 920.125 374.663C919.861 374.549 919.576 374.45 919.269 374.365L918.195 374.058C917.513 373.862 916.973 373.582 916.576 373.218C916.178 372.855 915.979 372.379 915.979 371.791C915.979 371.302 916.111 370.876 916.375 370.512C916.642 370.146 917 369.862 917.449 369.66C917.901 369.456 918.405 369.353 918.962 369.353C919.525 369.353 920.025 369.454 920.462 369.656C920.9 369.855 921.246 370.128 921.502 370.474C921.76 370.821 921.897 371.214 921.911 371.654H920.888Z" fill="#151515"/>
<path fill-rule="evenodd" clip-rule="evenodd" d="M927.5 478L1013.2 527.5L1084.7 486.2L999 436.7L927.5 478Z" fill="#83410F"/>
<path fill-rule="evenodd" clip-rule="evenodd" d="M928 486.4L1014 535.9V527.5L928 478V486.4Z" fill="#A3571D"/>
<path fill-rule="evenodd" clip-rule="evenodd" d="M1085 494.6L1014 535.9V527.5L1085 486.2V494.6Z" fill="#5A3519"/>
<path fill-rule="evenodd" clip-rule="evenodd" d="M934 556.5L1014 602.4V535.9L934 490V556.5Z" fill="#83410F"/>
<path fill-rule="evenodd" clip-rule="evenodd" d="M1080 563.8L1014 602.4V535.9L1080 497.3V563.8Z" fill="#4C2D15"/>
<path d="M1006 593.5V537.2L977 520.2V576.5L1006 593.5ZM1005 592.2L978 576.1V521.6L1005 537.7V592.2Z" fill="#9E4C0C"/>
<path d="M1008 593.1V536.8L978 519.8V576.1L1008 593.1ZM1006 591.7L978 575.6V521.1L1006 537.2V591.7Z" fill="#4C2D15"/>
<path d="M970 572.5V516.2L940 499.2V555.5L970 572.5ZM970 571.2L942 555.1V500.6L970 516.7V571.2Z" fill="#9E4C0C"/>
<path d="M971 572.1V515.8L942 498.8V555.1L971 572.1ZM970 570.7L943 554.6V500.1L970 516.2V570.7Z" fill="#4C2D15"/>
<path fill-rule="evenodd" clip-rule="evenodd" d="M981.3 552.5C982 552.5 982.6 551.9 982.6 551.2C982.6 550.5 982 549.9 981.3 549.9C980.6 549.9 980 550.5 980 551.2C980 551.9 980.6 552.5 981.3 552.5Z" fill="#0B0B0B"/>
<path fill-rule="evenodd" clip-rule="evenodd" d="M979.9 553.7C981 553.7 981.9 552.8 981.9 551.7C981.9 550.6 981 549.7 979.9 549.7C978.8 549.7 977.9 550.6 977.9 551.7C977.9 552.8 978.8 553.7 979.9 553.7Z" fill="#222222"/>
<path fill-rule="evenodd" clip-rule="evenodd" d="M967.3 544.9C968 544.9 968.6 544.3 968.6 543.6C968.6 542.9 968 542.3 967.3 542.3C966.6 542.3 966 542.9 966 543.6C966.1 544.3 966.6 544.9 967.3 544.9Z" fill="#0B0B0B"/>
<path fill-rule="evenodd" clip-rule="evenodd" d="M965.9 546.1C967 546.1 967.9 545.2 967.9 544.1C967.9 543 967 542.1 965.9 542.1C964.8 542.1 963.9 543 963.9 544.1C964 545.2 964.8 546.1 965.9 546.1Z" fill="#222222"/>
<path fill-rule="evenodd" clip-rule="evenodd" d="M1100 596.4L1076 582.6V609.4L1100 623.2V596.4Z" fill="#1A1A1A"/>
<path fill-rule="evenodd" clip-rule="evenodd" d="M1100 596.4L1124 582.6V609.4L1100 623.2V596.4Z" fill="#4D4D4D"/>
<path fill-rule="evenodd" clip-rule="evenodd" d="M1100.2 596.4L1124 582.6L1100.2 568.8L1076.3 582.6L1100.2 596.4Z" fill="#333333"/>
<path fill-rule="evenodd" clip-rule="evenodd" d="M1100 409L1092 404.7V583.1L1100 587.4V409Z" fill="#D49633"/>
<path fill-rule="evenodd" clip-rule="evenodd" d="M1100 409L1107 404.7V583.1L1100 587.4V409Z" fill="#FFD187"/>
<path fill-rule="evenodd" clip-rule="evenodd" d="M1100 405.5L1076 391.7V514.6L1100 528.4V405.5Z" fill="#D6D689"/>
<path fill-rule="evenodd" clip-rule="evenodd" d="M1100 405.5L1124 391.7V514.6L1100 528.4V405.5Z" fill="#FFFFCC"/>
<path fill-rule="evenodd" clip-rule="evenodd" d="M1100.2 405.5L1124 391.7L1100.2 377.9L1076.3 391.7L1100.2 405.5Z" fill="#EBEBA4"/>
<path fill-rule="evenodd" clip-rule="evenodd" d="M1100 405.5L1076 391.7V399.8L1100 413.6V405.5Z" fill="#1A1A1A"/>
<path fill-rule="evenodd" clip-rule="evenodd" d="M1100 405.5L1124 391.7V399.8L1100 413.6V405.5Z" fill="#4D4D4D"/>
<path fill-rule="evenodd" clip-rule="evenodd" d="M1100 520.3L1076 506.6V514.6L1100 528.4V520.3Z" fill="#1A1A1A"/>
<path fill-rule="evenodd" clip-rule="evenodd" d="M1100 520.3L1124 506.6V514.6L1100 528.4V520.3Z" fill="#4D4D4D"/>
<path fill-rule="evenodd" clip-rule="evenodd" d="M1004 487.9L981 474.1V483.6L1004 497.4V487.9Z" fill="#246A47"/>
<path fill-rule="evenodd" clip-rule="evenodd" d="M1004 487.9L1024 476.6V486.1L1004 497.4V487.9Z" fill="#5DC993"/>
<path fill-rule="evenodd" clip-rule="evenodd" d="M1004.6 487.9L1024.2 476.6L1000.3 462.8L980.7 474.1L1004.6 487.9Z" fill="#339966"/>
<path fill-rule="evenodd" clip-rule="evenodd" d="M1008 488.8L1024 479V483.7L1008 493.5V488.8Z" fill="#FFFFCC"/>
<path fill-rule="evenodd" clip-rule="evenodd" d="M991.4 480.3L1011 469L1004.8 465.4L985.2 476.7L991.4 480.3Z" fill="#CCFF66"/>
<path fill-rule="evenodd" clip-rule="evenodd" d="M995 482.4L1014.6 471.1L1013.1 470.2L993.5 481.5L995 482.4Z" fill="#CCFF66"/>
<path fill-rule="evenodd" clip-rule="evenodd" d="M983 475.4L982 474.9V484.5L983 484.9V475.4Z" fill="#999966"/>
<path fill-rule="evenodd" clip-rule="evenodd" d="M1003 486.9L1002 486.5V496L1003 496.5V486.9Z" fill="#999966"/>
<path fill-rule="evenodd" clip-rule="evenodd" d="M1000 477.8L976 464V473.5L1000 487.3V477.8Z" fill="#302469"/>
<path fill-rule="evenodd" clip-rule="evenodd" d="M1000 477.8L1020 466.5V476L1000 487.3V477.8Z" fill="#705CC8"/>
<path fill-rule="evenodd" clip-rule="evenodd" d="M1000.1 477.8L1019.7 466.5L995.8 452.7L976.2 464L1000.1 477.8Z" fill="#453398"/>
<path fill-rule="evenodd" clip-rule="evenodd" d="M1003 478.7L1020 468.8V473.6L1003 483.4V478.7Z" fill="#CBFFEE"/>
<path fill-rule="evenodd" clip-rule="evenodd" d="M987 470.1L1006.5 458.8L1000.4 455.3L980.8 466.6L987 470.1Z" fill="#65FCFF"/>
<path fill-rule="evenodd" clip-rule="evenodd" d="M990.6 472.2L1010.2 460.9L1008.7 460.1L989.1 471.4L990.6 472.2Z" fill="#65FCFF"/>
<path fill-rule="evenodd" clip-rule="evenodd" d="M578.1 375.6L530 403.6V396.6L572.2 372.1L578.1 375.6Z" fill="#FAE4CD"/>
<path fill-rule="evenodd" clip-rule="evenodd" d="M571 372.1L530 396.6V242.3L571 217.8V372.1Z" fill="white"/>
<path fill-rule="evenodd" clip-rule="evenodd" d="M571 372.1L577 375.6V214.3L571 217.8V372.1Z" fill="#FAE4CD"/>
<path fill-rule="evenodd" clip-rule="evenodd" d="M524.1 406.8L476 434.8V427.8L518.2 403.3L524.1 406.8Z" fill="#FAE4CD"/>
<path fill-rule="evenodd" clip-rule="evenodd" d="M517 403.3L476 427.8V273.5L517 249V403.3Z" fill="white"/>
<path fill-rule="evenodd" clip-rule="evenodd" d="M517 403.3L523 406.8V245.5L517 249V403.3Z" fill="#FAE4CD"/>
<path fill-rule="evenodd" clip-rule="evenodd" d="M468.9 438.4L420.3 466.4L420.4 459.4L462.8 434.9L468.9 438.4Z" fill="#FAE4CD"/>
<path fill-rule="evenodd" clip-rule="evenodd" d="M463 434.9L420 459.4V305.1L463 280.6V434.9Z" fill="white"/>
<path fill-rule="evenodd" clip-rule="evenodd" d="M463 434.9L468 438.4V277.1L463 280.6V434.9Z" fill="#FAE4CD"/>
<path fill-rule="evenodd" clip-rule="evenodd" d="M395 304.9L414 293.7V509.7L395 520.8V304.9Z" fill="#DFFF9E"/>
<path fill-rule="evenodd" clip-rule="evenodd" d="M395 304.9L390 302V518L395 520.8V304.9Z" fill="#A9DE40"/>
<path fill-rule="evenodd" clip-rule="evenodd" d="M414.2 293.7L452.9 271.3C452.9 315.1 433.1 357.1 414.2 389.9L394.8 401L414.2 293.7Z" fill="#DFFF9E"/>
<path fill-rule="evenodd" clip-rule="evenodd" d="M592 287.4L587 284.5V404.3L592 407.2V287.4Z" fill="#A9DE40"/>
<path fill-rule="evenodd" clip-rule="evenodd" d="M592 191.2L611 180V396L592 407.2V191.2Z" fill="#DFFF9E"/>
<path fill-rule="evenodd" clip-rule="evenodd" d="M552.9 213.5L547.9 210.7C547.9 241.9 566.7 268.7 586.6 284.5L591.6 287.4L552.9 213.5Z" fill="#A9DE40"/>
<path fill-rule="evenodd" clip-rule="evenodd" d="M552.9 213.5L591.6 191.1L611 276.1L591.6 287.3C577.4 279.2 552.9 249.6 552.9 213.5Z" fill="#DFFF9E"/>
<path fill-rule="evenodd" clip-rule="evenodd" d="M388 302.6L382.7 299.5L612.8 166.7L618.1 169.7L388 302.6Z" fill="#333333"/>
<path fill-rule="evenodd" clip-rule="evenodd" d="M387 302.6L382 299.5V307.4L387 310.5V302.6Z" fill="#1A1A1A"/>
<path fill-rule="evenodd" clip-rule="evenodd" d="M387 302.6L618 169.7V177.6L387 310.5V302.6Z" fill="#4D4D4D"/>
<path fill-rule="evenodd" clip-rule="evenodd" d="M805.5 744.2L859.1 775.2L994.3 697.1L940.8 666.1L805.5 744.2Z" fill="#A1752F"/>
<path fill-rule="evenodd" clip-rule="evenodd" d="M854 770.9L859 773.5V756.9L854 754.2V770.9Z" fill="#4D4D4D"/>
<path fill-rule="evenodd" clip-rule="evenodd" d="M864 770.9L859 773.5V756.9L864 754.2V770.9Z" fill="#1A1A1A"/>
<path fill-rule="evenodd" clip-rule="evenodd" d="M808 744L813 746.6V729.9L808 727.3V744Z" fill="#4D4D4D"/>
<path fill-rule="evenodd" clip-rule="evenodd" d="M818 744L813 746.6V729.9L818 727.3V744Z" fill="#1A1A1A"/>
<path fill-rule="evenodd" clip-rule="evenodd" d="M982 697.5L986 700.1V683.4L982 680.8V697.5Z" fill="#4D4D4D"/>
<path fill-rule="evenodd" clip-rule="evenodd" d="M991 697.5L986 700.1V683.4L991 680.8V697.5Z" fill="#1A1A1A"/>
<path fill-rule="evenodd" clip-rule="evenodd" d="M805.5 714.9L859.1 745.8L994.3 667.7L940.8 636.8L805.5 714.9Z" fill="#333333"/>
<path fill-rule="evenodd" clip-rule="evenodd" d="M805 725.9L859 756.9V745.8L805 714.9V725.9Z" fill="#4D4D4D"/>
<path fill-rule="evenodd" clip-rule="evenodd" d="M994 678.7L859 756.9V745.8L994 667.7V678.7Z" fill="#1A1A1A"/>
<path fill-rule="evenodd" clip-rule="evenodd" d="M289.8 384.7L267.5 397.6L265.3 396.3L287.7 383.4L289.8 384.7Z" fill="#B3B3B3"/>
<path fill-rule="evenodd" clip-rule="evenodd" d="M289 493.4L267 506.3V397.6L289 384.7V493.4Z" fill="#E6E6E6"/>
<path fill-rule="evenodd" clip-rule="evenodd" d="M267 506.3V397.6L265.1 396.3L265 505.1L267 506.3Z" fill="#808080"/>
<path fill-rule="evenodd" clip-rule="evenodd" d="M285.2 467.8L279.8 470.9L275.5 468.5L281 465.3L285.2 467.8Z" fill="#F9B955"/>
<path fill-rule="evenodd" clip-rule="evenodd" d="M286 494.2L280 497.4V470.9L286 467.8V494.2Z" fill="#FFD187"/>
<path fill-rule="evenodd" clip-rule="evenodd" d="M280 497.4V470.9L276 468.5V494.9L280 497.4Z" fill="#D49633"/>
<path d="M275 448.1C274.9 447.9 274.8 447.8 274.6 447.8L263.6 444.1L259.1 437.2L270.5 424.9C270.6 424.8 270.7 424.7 270.7 424.5L272.6 409.4C272.6 409.3 272.6 409.2 272.5 409.1L269.1 399.8C268.8 399.1 267.6 399.5 267.9 400.2L271.3 409.4L269.5 424.1L258.5 436L253.9 429.3L255.1 416.6C255.1 416.6 255.1 416.5 255.1 416.4L254.7 410.3C254.6 409.5 253.5 409.6 253.6 410.4L254.4 416.5L252.9 429.4C252.9 429.5 252.9 429.7 253 429.8L262.7 444.8C262.8 444.9 262.9 445 263 445.1L274 448.8L275.8 452.3L266.9 453.4L256.5 449.9C255.7 449.6 255.3 450.8 256.1 451.1L266.6 454.7C266.7 454.7 266.8 454.7 266.9 454.7L276.3 453.5L280 460.9L279.8 467.9C279.8 468.3 280 468.5 280.4 468.5C280.8 468.5 281 468.3 281 467.9C281.1 463.9 281.3 459.9 281.4 455.9L283.8 447L286.3 443.6C286.3 443.6 286.3 443.6 286.3 443.5L292.7 434.8C292.8 434.7 292.8 434.6 292.8 434.4L293.5 428.2L298.2 424.4C298.3 424.3 298.3 424.3 298.3 424.2L303.4 417.5C303.9 416.8 302.9 416.1 302.4 416.7L297.4 423.4L293.7 426.4L294.4 420C294.4 419.8 294.4 419.7 294.3 419.5L291.1 414.9L294.1 408.5C294.1 408.4 294.2 408.3 294.2 408.2L294.4 401.3C294.4 400.5 293.2 400.5 293.2 401.3L293 408.1L290.3 413.8L286.1 407.8L287.3 399L293.4 392.9C294 392.3 293.1 391.5 292.5 392L286.3 398.2C286.2 398.3 286.1 398.4 286.1 398.6L284.8 407.8C284.8 408 284.8 408.2 284.9 408.3C284.9 408.3 292.4 419 293.1 420L291.5 434L285.7 441.9L281 434.1L283.9 425.2C283.9 425.1 283.9 425 283.9 424.8L280.3 411.4C280.1 410.6 278.9 410.9 279.1 411.7L282.6 424.9L279.7 433.9C279.6 434.1 279.6 434.3 279.7 434.4L284.7 442.9L282.4 446.1C282.3 446.2 282.3 446.2 282.3 446.3L279.9 455.3V455.4L279.8 457.9C279.7 457.6 275 448.1 275 448.1Z" fill="#83410F"/>
<path fill-rule="evenodd" clip-rule="evenodd" d="M266 411.3C268.4 411.3 269 413.3 268.9 414.2C268 414.5 266 414.7 266 411.3Z" fill="#006633"/>
<path fill-rule="evenodd" clip-rule="evenodd" d="M286.8 403.4C291 403.4 292.2 406.9 291.9 408.5C290.4 409.2 286.8 409.5 286.8 403.4Z" fill="#006633"/>
<path fill-rule="evenodd" clip-rule="evenodd" d="M288.3 431.4C284 431.4 282.8 434.9 283.2 436.5C284.7 437.1 288.3 437.4 288.3 431.4Z" fill="#006633"/>
<path fill-rule="evenodd" clip-rule="evenodd" d="M252.2 441.3C253.9 439.6 255.8 440.5 256.3 441.3C255.9 442.1 254.6 443.7 252.2 441.3Z" fill="#006633"/>
<path fill-rule="evenodd" clip-rule="evenodd" d="M305.8 425.9C302.9 422.7 299.5 424.3 298.6 425.6C299.1 427.1 301.3 430 305.8 425.9Z" fill="#006633"/>
<path fill-rule="evenodd" clip-rule="evenodd" d="M273.1 442.8C275.3 443.7 275.1 445.8 274.6 446.5C273.7 446.5 271.8 445.9 273.1 442.8Z" fill="#006633"/>
<path fill-rule="evenodd" clip-rule="evenodd" d="M251.7 412.9C253.9 413.8 253.7 415.9 253.2 416.7C252.3 416.6 250.3 416 251.7 412.9Z" fill="#006633"/>
<path fill-rule="evenodd" clip-rule="evenodd" d="M251.7 429.8C256 429.8 257.2 433.3 256.8 434.9C255.3 435.6 251.7 435.9 251.7 429.8Z" fill="#99CC33"/>
<path fill-rule="evenodd" clip-rule="evenodd" d="M274.6 418.6C270.4 418.6 269.2 422.1 269.5 423.7C271.1 424.4 274.6 424.7 274.6 418.6Z" fill="#99CC33"/>
<path fill-rule="evenodd" clip-rule="evenodd" d="M280.6 406.3C283 406.3 283.7 408.3 283.5 409.2C282.6 409.5 280.6 409.7 280.6 406.3Z" fill="#99CC33"/>
<path fill-rule="evenodd" clip-rule="evenodd" d="M296.4 420.4C294 420.4 293.3 422.4 293.5 423.3C294.4 423.6 296.4 423.8 296.4 420.4Z" fill="#99CC33"/>
<path fill-rule="evenodd" clip-rule="evenodd" d="M284.2 438.5C281.8 438.5 281.1 440.5 281.3 441.4C282.1 441.7 284.2 442 284.2 438.5Z" fill="#99CC33"/>
<path fill-rule="evenodd" clip-rule="evenodd" d="M271.2 452.5C273.6 452.5 274.3 454.5 274.1 455.4C273.3 455.8 271.2 456 271.2 452.5Z" fill="#99CC33"/>
<path fill-rule="evenodd" clip-rule="evenodd" d="M278.4 445.3C282.6 445.2 283.9 448.8 283.5 450.4C282 451 278.4 451.3 278.4 445.3Z" fill="#99CC33"/>
<path fill-rule="evenodd" clip-rule="evenodd" d="M291 437.9C288.6 437.9 287.9 439.9 288.1 440.8C289 441.2 291 441.4 291 437.9Z" fill="#99CC33"/>
<path fill-rule="evenodd" clip-rule="evenodd" d="M271.5 431.6C268.6 428.4 265.2 430 264.3 431.4C264.9 432.9 267 435.8 271.5 431.6Z" fill="#006633"/>
<path fill-rule="evenodd" clip-rule="evenodd" d="M263.9 423.8C266.3 423.8 267 425.8 266.8 426.7C265.9 427 263.9 427.2 263.9 423.8Z" fill="#006633"/>
<path fill-rule="evenodd" clip-rule="evenodd" d="M279.1 417.7C283.4 417.7 284.6 421.2 284.2 422.8C282.7 423.4 279.1 423.8 279.1 417.7Z" fill="#999933"/>
<path fill-rule="evenodd" clip-rule="evenodd" d="M261 440.7C263.4 440.7 264.1 442.7 263.9 443.6C263 444 261 444.2 261 440.7Z" fill="#999933"/>
<path fill-rule="evenodd" clip-rule="evenodd" d="M255 448.5C257.4 448.5 258.1 450.5 257.9 451.4C257 451.7 255 451.9 255 448.5Z" fill="#999933"/>
<path fill-rule="evenodd" clip-rule="evenodd" d="M262.8 451.4C260.4 451.4 259.7 453.4 259.9 454.3C260.7 454.7 262.8 454.8 262.8 451.4Z" fill="#999933"/>
<path fill-rule="evenodd" clip-rule="evenodd" d="M278.3 430.4C280.7 430.4 281.4 432.4 281.2 433.3C280.3 433.6 278.3 433.8 278.3 430.4Z" fill="#999933"/>
<path fill-rule="evenodd" clip-rule="evenodd" d="M248.7 422C252.9 422 254.2 425.5 253.8 427.1C252.2 427.7 248.7 428.1 248.7 422Z" fill="#999933"/>
<path fill-rule="evenodd" clip-rule="evenodd" d="M258 419.5C255.1 420.1 254.8 422.8 255.3 423.8C256.5 424 258.9 423.7 258 419.5Z" fill="#006633"/>
<path fill-rule="evenodd" clip-rule="evenodd" d="M295.9 411.1C293 411.7 292.7 414.4 293.2 415.4C294.3 415.6 296.8 415.3 295.9 411.1Z" fill="#006633"/>
<path fill-rule="evenodd" clip-rule="evenodd" d="M289.7 392.3C285.5 392.3 284.3 395.8 284.6 397.4C286.1 398.1 289.7 398.4 289.7 392.3Z" fill="#006633"/>
<path fill-rule="evenodd" clip-rule="evenodd" d="M263.5 394.1C265.9 394.1 266.6 396.1 266.4 397C265.6 397.3 263.5 397.5 263.5 394.1Z" fill="#99CC33"/>
<path fill-rule="evenodd" clip-rule="evenodd" d="M293.3 430.8C297.5 430.8 298.7 434.3 298.4 435.9C296.9 436.6 293.3 436.9 293.3 430.8Z" fill="#999933"/>
</g>
<defs>
<filter id="filter0_d_101_2" x="-4" y="1" width="1408" height="988" filterUnits="userSpaceOnUse" color-interpolation-filters="sRGB">
<feFlood flood-opacity="0" result="BackgroundImageFix"/>
<feColorMatrix in="SourceAlpha" type="matrix" values="0 0 0 0 0 0 0 0 0 0 0 0 0 0 0 0 0 0 127 0" result="hardAlpha"/>
<feOffset dy="4"/>
<feGaussianBlur stdDeviation="2"/>
<feComposite in2="hardAlpha" operator="out"/>
<feColorMatrix type="matrix" values="0 0 0 0 0 0 0 0 0 0 0 0 0 0 0 0 0 0 0.25 0"/>
<feBlend mode="normal" in2="BackgroundImageFix" result="effect1_dropShadow_101_2"/>
<feBlend mode="normal" in="SourceGraphic" in2="effect1_dropShadow_101_2" result="shape"/>
</filter>
<clipPath id="clip0_101_2">
<rect width="1400" height="980" fill="white"/>
</clipPath>
</defs>
</svg>
